<svg width="40" height="40" viewBox="0 0 40 40" fill="none" xmlns="http://www.w3.org/2000/svg">
<path d="M20 0C9 0 0 9 0 20C0 31 8.95652 40 20 40C31.0435 40 40 31.0435 40 20C40 8.95652 31.0435 0 20 0ZM29.3913 29.3478C29.3913 29.3478 29.3913 29.3913 29.3478 29.3913C29 29.913 28.4783 30.1739 27.9565 30.1739C27.6522 30.1739 27.3478 30.087 27.087 29.913C22.6522 27.1739 16.9565 26.5652 10.2174 28.1304C9.30435 28.3913 8.47826 27.7391 8.26087 26.9565C8 25.9565 8.65217 25.1739 9.43478 24.9565C17.1304 23.2174 23.6087 23.9565 28.7391 27.1304C29.1304 27.3043 29.3913 27.5652 29.5217 27.9565C29.6522 28.3913 29.6087 28.913 29.3913 29.3478ZM31.6957 24.0435C31.3478 24.5217 30.8696 24.8696 30.3043 24.9565C30.2174 24.9565 30.087 25 30 25C29.6522 25 29.3043 24.8696 29 24.6957C23.7826 21.5217 15.913 20.6087 9.91304 22.5217C8.82609 22.7826 7.73913 22.2174 7.47826 21.2174C7.21739 20.1304 7.78261 19.087 8.78261 18.8261C15.9565 16.6522 24.9565 17.7391 31.1304 21.5217C31.4783 21.6957 31.7826 22.087 31.913 22.6087C32.1304 23.0435 32 23.6087 31.6957 24.0435ZM34.4348 18.087C34 18.6957 33.2609 19 32.5217 19C32.1304 19 31.6957 18.913 31.3478 18.6957C25.3043 15.087 14.913 14.6522 9 16.4783C7.82609 16.8261 6.6087 16.1739 6.21739 15.0435C5.86956 13.8696 6.52174 12.6087 7.65217 12.2609C14.6957 10.1739 26.3478 10.6087 33.6522 14.9565C34.6957 15.4783 35.087 16.913 34.4348 18.087C34.4783 18.0435 34.4783 18.0435 34.4348 18.087Z" fill="black"/>
</svg>
